<?xml version="1.0" encoding="UTF-8" standalone="no"?>
<svg
   xmlns:dc="http://purl.org/dc/elements/1.1/"
   xmlns:cc="http://creativecommons.org/ns#"
   xmlns:rdf="http://www.w3.org/1999/02/22-rdf-syntax-ns#"
   xmlns:svg="http://www.w3.org/2000/svg"
   xmlns="http://www.w3.org/2000/svg"
   xmlns:sodipodi="http://sodipodi.sourceforge.net/DTD/sodipodi-0.dtd"
   xmlns:inkscape="http://www.inkscape.org/namespaces/inkscape"
   enable-background="new 0 0 48 48"
   height="48px"
   id="Layer_1"
   version="1.1"
   viewBox="0 0 48 48"
   width="48px"
   xml:space="preserve"
   sodipodi:docname="book.svg"
   inkscape:version="0.92.2 2405546, 2018-03-11"><metadata
     id="metadata9"><rdf:RDF><cc:Work
         rdf:about=""><dc:format>image/svg+xml</dc:format><dc:type
           rdf:resource="http://purl.org/dc/dcmitype/StillImage" /></cc:Work></rdf:RDF></metadata><defs
     id="defs7" /><sodipodi:namedview
     pagecolor="#ffffff"
     bordercolor="#666666"
     borderopacity="1"
     objecttolerance="10"
     gridtolerance="10"
     guidetolerance="10"
     inkscape:pageopacity="0"
     inkscape:pageshadow="2"
     inkscape:window-width="1366"
     inkscape:window-height="697"
     id="namedview5"
     showgrid="false"
     inkscape:zoom="4.9166667"
     inkscape:cx="12.915254"
     inkscape:cy="24"
     inkscape:window-x="0"
     inkscape:window-y="29"
     inkscape:window-maximized="1"
     inkscape:current-layer="Layer_1" /><path
     clip-rule="evenodd"
     d="M41,46L41,46c0,0.553-0.447,1-1,1H12l0,0c-2.762,0-5-2.238-5-5V6  c0-2.761,2.238-5,5-5l0,0h26l0,0c0.414,0,0.77,0.252,0.922,0.611C38.972,1.73,39,1.862,39,2v0v7l0,0h1l0,0  c0.278,0,0.529,0.115,0.711,0.298C40.889,9.479,41,9.726,41,10c0,0,0,0,0,0V46z M9,42L9,42L9,42c0,1.657,1.344,3,3,3h3V11h-3l0,0  c-1.131,0-2.162-0.39-3-1.022V42z M37,9V3H12l0,0l0,0c-1.656,0-3,1.343-3,3s1.344,3,3,3H37L37,9z M39,11H17v34h22V11z M12,7  c-0.553,0-1-0.448-1-1s0.447-1,1-1h22c0.553,0,1,0.448,1,1s-0.447,1-1,1H12z"
     fill-rule="evenodd"
     id="path2"
     style="fill:#cd201f;fill-opacity:1" /></svg>