<?xml version="1.0" standalone="no"?>
<!DOCTYPE svg PUBLIC "-//W3C//DTD SVG 20010904//EN"
 "http://www.w3.org/TR/2001/REC-SVG-20010904/DTD/svg10.dtd">
<svg version="1.0" xmlns="http://www.w3.org/2000/svg"
 width="567.000000pt" height="567.000000pt" viewBox="0 0 567.000000 567.000000"
 preserveAspectRatio="xMidYMid meet">
<metadata>
Created by potrace 1.11, written by Peter Selinger 2001-2013
</metadata>
<g transform="translate(0.000000,567.000000) scale(0.100000,-0.100000)"
fill="#000000" stroke="none">
<path d="M2805 5621 c-38 -59 -107 -124 -170 -161 -59 -34 -145 -58 -354 -100
-85 -17 -181 -39 -213 -50 -137 -45 -267 -131 -344 -229 -46 -58 -104 -167
-104 -195 0 -25 -16 -19 -73 23 -67 50 -143 91 -235 124 -86 32 -110 34 -112
10 -9 -154 0 -399 17 -425 2 -5 -13 -8 -34 -9 -21 0 -54 -2 -73 -4 -48 -6
-200 -57 -200 -67 0 -4 -5 -8 -11 -8 -16 0 -98 -59 -153 -110 -65 -60 -109
-120 -212 -292 -91 -150 -194 -300 -228 -332 -27 -24 -87 -50 -153 -65 l-52
-13 38 -51 c67 -89 73 -115 66 -256 -3 -69 -8 -127 -9 -130 -2 -3 -7 -31 -10
-61 -4 -30 -9 -67 -11 -82 -3 -16 -7 -40 -10 -55 -30 -176 -24 -339 19 -467
45 -133 109 -222 219 -304 l67 -51 -67 -54 c-38 -30 -82 -70 -99 -88 -54 -58
-135 -170 -129 -179 16 -26 209 -91 325 -110 41 -7 80 -13 86 -15 7 -2 5 -26
-8 -76 -52 -206 28 -458 202 -639 287 -299 328 -350 357 -449 9 -31 17 -86 16
-123 0 -73 4 -77 49 -54 46 24 136 38 206 32 76 -6 158 -32 322 -103 252 -109
328 -130 476 -131 137 0 236 27 340 93 l52 33 27 -71 c40 -104 107 -214 179
-295 28 -30 30 -31 45 -15 24 27 104 135 120 162 50 89 67 122 86 169 l21 53
27 -21 c42 -33 154 -82 221 -96 131 -27 297 -11 436 43 68 26 85 33 185 78 33
15 110 45 170 66 98 34 119 38 195 35 64 -1 100 -8 147 -28 l62 -25 -1 66 c-3
140 41 229 192 391 14 15 68 72 121 127 193 202 264 339 276 538 5 83 -7 173
-32 237 -6 14 -2 18 16 17 86 -4 276 39 362 82 23 12 44 23 46 25 5 5 -66 110
-103 151 -53 60 -100 106 -145 145 l-42 36 43 30 c180 124 277 326 272 567 -1
55 -4 114 -7 130 -3 17 -9 55 -12 85 -4 30 -9 64 -11 75 -3 11 -7 40 -10 65
-3 25 -7 56 -9 70 -2 14 -7 74 -10 133 -8 124 -3 141 61 232 l42 61 -56 13
c-109 25 -143 50 -221 163 -40 57 -116 174 -169 261 -53 86 -119 184 -147 216
-87 101 -209 181 -330 217 -69 20 -79 21 -159 23 -51 1 -57 3 -51 19 4 9 8 25
10 35 2 10 6 26 9 35 21 68 27 345 9 363 -21 21 -268 -77 -369 -146 l-38 -26
-37 78 c-98 203 -298 334 -596 387 -12 3 -58 12 -100 20 -43 9 -87 18 -99 20
-154 30 -269 101 -351 217 l-39 57 -29 -47z m193 -205 c51 -30 150 -66 222
-80 14 -2 50 -10 80 -16 30 -6 71 -13 90 -16 19 -3 38 -8 41 -10 4 -2 24 -6
45 -10 20 -3 48 -10 61 -15 13 -5 23 -7 23 -4 0 9 142 -56 196 -90 117 -74
195 -174 240 -306 32 -95 36 -119 39 -224 3 -138 -12 -174 -155 -376 -68 -96
-144 -203 -168 -239 -83 -120 -105 -145 -112 -126 -5 15 -8 15 -25 2 -29 -22
-32 -20 -29 19 l3 35 -29 -15 c-41 -21 -34 1 20 65 145 170 271 380 305 510
19 72 19 171 0 245 -47 180 -152 268 -384 322 -148 34 -417 120 -469 149 -44
26 -92 70 -127 117 -19 27 -45 36 -45 17 0 -17 -108 -119 -148 -139 -35 -18
-244 -90 -307 -106 -16 -5 -34 -9 -40 -11 -5 -2 -26 -6 -44 -10 -200 -36 -341
-110 -407 -215 -60 -95 -79 -269 -43 -386 37 -117 134 -287 247 -428 36 -44
68 -85 73 -90 4 -6 10 -23 13 -39 5 -29 6 -29 -41 -9 -8 3 -13 -3 -13 -16 0
-18 -5 -20 -32 -17 -20 2 -38 12 -47 27 -9 13 -18 26 -21 29 -4 3 -80 108
-169 233 -189 265 -204 296 -205 437 -2 340 192 571 546 651 103 23 101 22
213 44 103 21 181 42 225 62 53 24 151 97 184 137 l29 35 54 -54 c30 -30 80
-70 111 -89z m-120 -165 c22 -21 59 -50 83 -64 40 -23 288 -111 341 -121 13
-2 43 -9 68 -16 25 -7 59 -14 75 -17 17 -3 57 -14 90 -25 158 -53 242 -147
261 -294 18 -141 -1 -212 -101 -385 -82 -141 -241 -349 -266 -349 -4 0 -4 21
-1 48 5 45 4 46 -14 32 -10 -7 -25 -21 -31 -29 -11 -12 -13 -5 -13 40 l-1 54
-39 -45 -40 -44 4 68 c6 94 0 104 -34 64 l-28 -32 3 67 c2 37 0 67 -5 67 -5 0
-23 -17 -42 -39 l-33 -39 -2 72 c-1 39 -5 82 -8 95 l-6 25 -25 -29 c-15 -17
-24 -23 -25 -14 -4 76 -14 135 -30 188 l-11 33 -24 -28 c-13 -16 -23 -35 -24
-41 0 -7 -4 -13 -8 -13 -5 0 -8 21 -7 48 1 75 -29 196 -89 356 -31 82 -58 151
-60 153 -5 5 -114 -288 -131 -352 -8 -33 -16 -90 -17 -127 -2 -38 -6 -68 -10
-68 -5 0 -8 4 -8 9 0 4 -10 21 -21 36 l-22 27 -13 -39 c-15 -42 -26 -115 -28
-179 l0 -42 -26 34 c-14 18 -30 33 -37 34 -6 0 -15 -19 -19 -42 -4 -24 -9 -46
-10 -50 -1 -5 -2 -29 -3 -54 l-1 -46 -35 31 c-20 17 -38 31 -42 31 -3 0 -3
-37 0 -82 3 -45 2 -77 -1 -72 -9 13 -68 54 -77 54 -4 0 -5 -22 -3 -50 3 -27 4
-50 3 -50 -1 0 -12 9 -25 20 -35 30 -42 25 -37 -25 4 -43 3 -45 -14 -29 -9 8
-29 17 -43 18 -51 6 -228 256 -305 431 -56 129 -54 268 4 385 49 95 154 160
320 195 158 33 406 113 470 150 22 13 60 41 85 64 25 22 46 40 46 41 1 0 20
-18 42 -39z m1539 -365 c-4 -55 -9 -117 -12 -136 -8 -43 -32 -141 -37 -145 -2
-1 -39 -10 -82 -20 -44 -9 -87 -21 -95 -25 -41 -21 -102 -50 -106 -50 -3 0 -2
12 1 27 15 58 11 155 -10 265 -4 24 1 32 37 56 91 62 281 147 301 135 5 -3 6
-51 3 -107z m-3067 71 c56 -26 131 -71 194 -117 l48 -35 -8 -65 c-9 -86 -9
-124 -1 -188 l8 -52 -58 29 c-54 28 -176 66 -233 73 -19 2 -26 11 -32 38 -19
92 -28 300 -14 337 7 16 25 12 96 -20z m1533 -129 c25 -68 51 -149 57 -182 11
-55 15 -237 7 -281 -3 -11 -8 -46 -12 -79 -3 -32 -8 -68 -10 -80 -2 -11 -6
-43 -9 -71 -14 -108 -9 -102 -78 -98 -34 2 -63 5 -65 6 -1 2 -5 28 -8 58 -2
30 -6 63 -9 74 -2 11 -7 40 -11 65 -4 25 -9 52 -10 60 -24 130 -22 289 4 394
9 35 92 256 96 256 1 0 23 -55 48 -122z m-1613 -283 c137 -12 286 -77 355
-156 17 -19 86 -113 155 -209 68 -96 127 -177 130 -180 23 -21 94 -140 100
-166 9 -38 3 -41 -39 -19 -34 17 -43 11 -30 -22 12 -32 7 -38 -20 -23 -12 6
-21 7 -21 3 0 -4 -12 15 -26 42 -112 212 -312 443 -435 503 -80 40 -178 61
-262 57 -127 -6 -242 -88 -343 -244 -92 -140 -114 -172 -188 -266 -106 -136
-157 -179 -250 -211 -22 -8 -47 -16 -54 -19 -9 -3 -5 -17 17 -48 54 -79 66
-135 65 -302 0 -140 -5 -218 -20 -323 -26 -182 8 -337 92 -426 43 -46 142
-105 213 -127 64 -20 212 -29 257 -16 11 4 39 9 64 12 25 3 72 13 105 22 33 8
69 17 79 19 35 7 120 36 204 70 45 19 94 34 108 34 l27 0 -28 -27 -27 -28 31
-9 c36 -10 37 -13 12 -43 -23 -27 -41 -33 -456 -154 -38 -11 -106 -32 -150
-47 -102 -33 -185 -33 -288 2 -216 72 -370 231 -423 436 -24 90 -24 282 0 407
3 11 8 43 12 70 3 26 8 56 10 66 8 44 18 189 19 262 0 72 -3 86 -32 138 -28
51 -30 59 -15 64 53 17 111 51 139 80 42 46 145 197 251 372 159 262 312 384
512 407 25 3 47 7 48 9 2 2 9 2 15 0 7 -2 46 -6 87 -10z m3347 -11 c104 -27
221 -100 303 -191 52 -57 80 -91 80 -97 0 -3 22 -40 49 -83 26 -43 74 -120
106 -171 32 -51 62 -98 69 -105 6 -7 24 -32 40 -57 41 -63 88 -105 149 -130
l53 -22 -33 -64 c-30 -61 -31 -68 -27 -151 8 -160 11 -190 43 -398 24 -161 26
-250 5 -352 -42 -215 -188 -379 -408 -462 -119 -44 -199 -45 -327 -3 -52 17
-143 45 -204 62 -213 60 -370 113 -392 130 l-22 17 41 12 40 12 -26 28 -27 28
26 5 c16 4 54 -7 103 -28 78 -33 234 -82 284 -89 15 -2 36 -6 47 -10 10 -3 34
-8 52 -11 19 -2 50 -7 69 -10 38 -6 153 -7 185 -1 60 10 96 20 101 28 3 5 12
9 19 9 19 0 99 51 141 90 109 99 140 244 104 499 -17 126 -20 384 -4 443 7 27
29 77 49 110 19 33 34 61 33 62 -2 1 -28 10 -58 21 -61 20 -115 51 -152 87
-41 40 -193 239 -248 328 -99 156 -161 222 -256 270 -142 70 -348 33 -494 -90
-86 -72 -248 -281 -318 -409 -37 -68 -48 -81 -69 -81 -9 0 -10 7 -3 24 12 32
4 37 -35 20 -45 -18 -45 -18 -36 14 4 15 6 33 4 39 -4 10 67 120 114 178 5 6
68 94 141 197 107 151 143 193 185 221 59 39 149 74 222 87 74 12 223 9 282
-6z m-1961 -71 c36 -89 42 -115 68 -294 22 -148 24 -141 -26 -137 -27 2 -42 8
-44 18 -1 8 -7 42 -13 75 -23 128 -29 220 -17 308 4 31 11 57 14 57 4 0 12
-12 18 -27z m392 -20 c13 -84 5 -222 -19 -331 -6 -30 -12 -61 -13 -70 -2 -13
-11 -16 -37 -14 -44 5 -51 10 -45 30 3 10 8 40 11 67 4 28 8 61 10 75 2 14 7
45 10 70 6 39 16 87 29 140 7 27 38 81 43 76 3 -2 8 -22 11 -43z m-1733 -138
c68 -13 160 -68 230 -140 129 -131 325 -416 291 -423 -19 -4 -20 -11 -6 -46
10 -26 2 -34 -15 -17 -6 5 -25 12 -43 16 -32 7 -34 6 -27 -16 4 -13 13 -30 19
-38 9 -12 7 -13 -9 -7 -46 19 -90 34 -93 31 -6 -5 33 -85 41 -85 4 0 6 -4 3
-8 -3 -5 -37 7 -76 26 -39 19 -74 32 -77 28 -3 -3 4 -23 16 -46 11 -22 20 -40
18 -40 -1 0 -31 9 -65 20 -92 29 -98 27 -73 -16 12 -19 21 -37 21 -39 0 -1
-21 3 -47 11 -27 8 -84 18 -128 21 l-79 6 18 -29 c10 -16 26 -35 35 -43 14
-12 14 -13 -4 -6 -82 29 -282 45 -385 30 -14 -2 -65 -4 -114 -4 l-88 -1 146
-110 c153 -116 242 -170 314 -191 23 -7 42 -15 42 -19 0 -3 -17 -11 -37 -16
-20 -5 -38 -14 -40 -19 -4 -12 86 -66 141 -86 41 -15 45 -24 15 -32 -43 -11 0
-43 85 -62 31 -6 28 -17 -5 -22 -12 -2 -29 -7 -38 -12 -17 -10 -13 -12 79 -46
l35 -13 -27 -12 c-16 -7 -28 -16 -28 -20 0 -8 41 -26 83 -36 35 -8 34 -17 -3
-31 -16 -6 -30 -16 -30 -21 0 -11 53 -32 81 -32 28 0 23 -13 -11 -34 -35 -20
-32 -32 12 -41 l32 -7 -38 -20 c-173 -89 -499 -170 -653 -162 -82 4 -147 25
-220 73 -94 62 -134 120 -153 223 -10 52 -7 191 5 248 8 39 17 172 19 295 3
122 -11 211 -43 273 l-21 41 70 37 c79 41 109 71 237 240 33 44 85 118 114
165 152 243 260 303 474 264z m3277 -13 c66 -29 140 -102 205 -202 79 -121
108 -163 186 -265 89 -115 136 -159 208 -196 l58 -29 -25 -56 c-13 -30 -27
-72 -31 -92 -12 -64 -3 -375 12 -452 25 -123 13 -285 -25 -361 -59 -116 -242
-205 -400 -193 -203 14 -608 134 -559 165 11 7 7 15 -19 37 l-34 29 51 7 c56
7 58 16 7 47 -17 10 -29 19 -26 20 102 16 120 20 115 30 -4 5 -22 17 -42 28
l-36 18 29 7 c121 29 129 39 51 66 l-48 17 57 12 c31 7 72 20 92 28 l36 15
-33 14 c-18 8 -42 14 -52 14 -36 0 -19 15 44 39 70 26 161 80 152 90 -4 3 -25
13 -47 22 l-40 15 44 13 c76 23 154 69 275 160 65 50 132 101 148 115 l30 25
-60 2 c-33 1 -85 3 -115 5 -99 7 -234 7 -270 0 -59 -12 -104 -23 -125 -32
l-20 -7 20 23 c11 14 26 31 34 40 13 13 8 15 -48 18 -36 2 -85 -4 -116 -13
-70 -20 -68 -21 -50 22 8 20 13 38 10 41 -2 3 -34 -5 -70 -17 -36 -11 -68 -21
-71 -21 -3 0 4 15 15 34 12 18 21 37 21 41 0 10 -46 -2 -94 -26 -22 -10 -41
-19 -42 -19 -2 0 6 19 16 43 23 50 13 57 -46 32 -20 -8 -39 -13 -42 -11 -2 3
0 19 6 35 9 27 9 31 -6 31 -9 0 -31 -9 -49 -20 l-32 -19 9 25 c14 36 12 44
-10 44 -26 0 -17 23 49 129 107 173 256 344 346 396 107 63 262 79 357 37z
m-2012 -67 c11 -35 23 -76 26 -91 3 -16 10 -46 15 -68 12 -45 10 -47 -31 -49
-31 -2 -33 1 -51 56 -16 51 -20 125 -10 226 2 29 30 -11 51 -74z m542 -26 c0
-51 -6 -114 -13 -141 -10 -44 -14 -49 -33 -44 -11 3 -24 6 -28 6 -4 0 -2 15 3
33 5 17 12 52 15 77 13 100 38 180 51 166 4 -3 6 -47 5 -97z m72 -107 c-8 -42
-16 -82 -18 -89 -7 -18 -47 -3 -42 16 2 9 10 40 16 69 7 28 16 52 21 52 5 0 9
8 9 18 0 24 12 36 20 22 4 -6 1 -46 -6 -88z m-706 16 c42 -83 45 -112 12 -113
-20 0 -26 7 -37 45 -16 56 -24 130 -14 130 4 0 22 -28 39 -62z m776 -32 c-7
-57 -19 -102 -27 -98 -4 1 -13 2 -21 2 -13 0 -12 7 1 48 15 43 41 92 48 92 2
0 1 -20 -1 -44z m-849 -43 c31 -44 33 -49 18 -60 -26 -20 -33 -16 -50 24 -18
45 -24 83 -12 83 5 0 24 -21 44 -47z m914 -36 c-11 -39 -26 -54 -40 -40 -5 5
2 24 18 46 14 20 28 36 29 34 2 -2 -1 -20 -7 -40z m-969 -48 c0 -4 -7 -10 -15
-13 -16 -6 -35 29 -35 62 1 13 7 9 25 -13 14 -16 25 -33 25 -36z m613 37 c212
-22 470 -132 633 -272 121 -103 224 -231 292 -363 104 -200 137 -340 136 -571
0 -133 -4 -170 -27 -263 -28 -114 -75 -237 -114 -299 -13 -21 -23 -40 -23 -42
0 -3 -19 -33 -42 -68 -95 -138 -267 -293 -413 -372 -68 -36 -198 -92 -235
-100 -14 -3 -52 -12 -85 -20 -141 -35 -357 -37 -505 -5 -498 109 -879 518
-948 1016 -8 61 -8 252 0 318 57 452 376 837 818 988 80 27 97 31 200 47 116
17 185 18 313 6z m415 -26 c-10 -37 -38 -57 -38 -26 0 12 36 66 45 66 1 0 -2
-18 -7 -40z m-1112 -15 c8 -13 13 -29 9 -35 -9 -15 -22 -4 -33 30 -13 37 1 40
24 5z m1179 -27 c-9 -42 -11 -44 -30 -28 -14 12 -13 15 6 37 29 30 32 29 24
-9z m-1228 -13 c8 -22 -6 -33 -17 -15 -13 20 -12 30 0 30 6 0 13 -7 17 -15z
m1281 -30 c-6 -14 -15 -25 -20 -25 -11 0 -10 7 2 31 16 28 32 23 18 -6z
m-1334 -27 c-7 -11 -7 -11 -24 22 -13 25 -13 25 8 6 12 -10 19 -23 16 -28z
m-56 -9 c7 -12 11 -23 8 -26 -7 -7 -25 6 -36 28 -15 27 11 26 28 -2z m1447 -8
c-4 -12 -12 -18 -21 -14 -13 5 -13 8 2 24 20 23 28 18 19 -10z m-1496 -35 c8
-9 8 -16 2 -20 -6 -4 -15 3 -21 14 -12 23 2 27 19 6z m1559 -6 c-13 -21 -28
-27 -28 -10 0 5 8 14 18 19 23 14 24 14 10 -9z m-1613 -40 c16 -18 16 -20 2
-20 -9 0 -21 9 -27 20 -6 11 -7 20 -2 20 5 0 17 -9 27 -20z m1674 -7 c-7 -10
-14 -20 -16 -22 -1 -1 -7 0 -13 4 -8 5 -5 11 7 21 25 19 38 17 22 -3z m-1714
-42 c3 -5 0 -13 -6 -17 -12 -7 -39 20 -39 38 0 10 36 -7 45 -21z m1760 -7
c-12 -18 -20 -23 -28 -15 -7 7 -3 16 14 30 31 25 36 19 14 -15z m-1827 -24
c13 -11 21 -24 17 -30 -10 -17 -20 -12 -38 20 -21 34 -12 38 21 10z m1893 -12
c-21 -35 -44 -43 -49 -18 -2 14 41 49 61 50 5 0 0 -15 -12 -32z m-1943 -36
c16 -12 21 -23 16 -36 -6 -15 -11 -14 -40 15 -19 18 -34 36 -34 40 0 11 32 0
58 -19z m2023 11 c-5 -10 -23 -31 -40 -47 -26 -25 -31 -27 -37 -12 -7 19 -9
18 36 50 42 29 54 32 41 9z m-2093 -56 c49 -31 51 -34 38 -52 -14 -20 -15 -20
-41 5 -34 32 -69 80 -58 80 5 0 32 -15 61 -33z m2182 26 c0 -12 -94 -103 -106
-103 -6 0 -14 9 -17 20 -4 16 3 26 31 44 75 47 92 54 92 39z m-2269 -74 c88
-48 91 -51 83 -72 -5 -15 -13 -13 -64 16 -53 30 -124 97 -102 97 5 0 42 -18
83 -41z m2351 14 c-11 -16 -45 -52 -76 -81 l-55 -53 -18 27 c-17 26 -17 27 12
50 24 19 141 83 153 84 2 0 -5 -12 -16 -27z m113 -43 c-28 -29 -225 -135 -225
-121 0 35 224 174 249 154 3 -2 -8 -16 -24 -33z m-2582 5 c81 -33 167 -86 167
-102 0 -29 -31 -22 -115 23 -81 44 -135 83 -135 98 0 11 19 7 83 -19z m-209
-10 c38 -8 83 -20 100 -27 31 -13 237 -116 243 -122 2 -1 -5 -18 -15 -37 -21
-43 -15 -44 -195 45 -84 42 -156 85 -185 112 -52 48 -48 50 52 29z m3000 -9
c-9 -24 -114 -90 -245 -154 -70 -34 -131 -62 -136 -62 -8 0 -33 55 -33 72 0
13 234 120 301 137 91 24 120 26 113 7z m-3129 -51 c44 -15 158 -65 253 -111
162 -78 173 -85 166 -106 -26 -85 -31 -93 -55 -92 -28 1 -101 12 -132 19 -12
3 -34 7 -50 9 -159 27 -291 63 -362 98 -42 22 -152 94 -171 113 -6 6 -34 28
-63 50 l-52 40 43 5 c24 3 111 5 193 5 137 -1 157 -4 230 -30z m3545 20 c46
-3 86 -7 88 -9 1 -2 -25 -26 -60 -53 -215 -169 -284 -197 -618 -253 -69 -11
-132 -23 -140 -25 -22 -7 -65 109 -47 123 7 6 82 44 167 85 174 84 289 125
370 134 30 3 56 6 57 7 3 3 74 0 183 -9z m-3375 -331 c50 -8 104 -17 120 -20
90 -14 93 -17 79 -72 -6 -21 -10 -22 -63 -17 -31 3 -67 8 -81 10 -14 3 -41 7
-60 10 -60 10 -143 36 -198 63 -43 21 -50 28 -35 33 31 13 144 10 238 -7z
m3048 4 c20 -1 37 -5 37 -9 0 -20 -163 -79 -260 -94 -114 -17 -166 -22 -172
-16 -4 3 -9 20 -12 38 -5 25 -2 33 11 36 37 10 71 17 118 22 27 4 52 8 56 10
3 3 37 7 75 11 38 4 71 8 73 10 3 2 12 2 20 -1 9 -2 33 -5 54 -7z m-2988 -133
c35 -6 94 -13 114 -14 8 -1 11 -4 7 -8 -6 -7 -146 -5 -184 2 -10 1 -36 6 -59
10 -24 4 -43 12 -43 17 0 10 87 7 165 -7z m2839 -9 c54 -10 47 -21 -19 -32
-21 -3 -47 -7 -58 -9 -11 -3 -50 -7 -88 -11 -59 -5 -70 -4 -75 10 -10 26 -8
27 101 41 27 3 51 8 53 9 3 4 24 2 86 -8z m-2717 -77 c-1 -19 -7 -21 -69 -22
-52 -2 -138 13 -138 23 0 4 30 11 68 15 37 4 71 8 76 9 5 1 22 0 37 -2 20 -3
27 -9 26 -23z m2658 -24 c11 -2 25 -4 30 -5 30 -4 -48 -20 -120 -25 -78 -5
-85 -4 -85 13 0 10 2 21 5 24 6 6 133 1 170 -7z m-2667 -55 c-2 -18 -9 -25
-23 -24 -41 3 -119 15 -128 21 -18 11 44 28 99 28 53 0 55 -1 52 -25z m2616
-26 c45 -10 11 -24 -59 -24 -53 0 -61 3 -62 19 -1 17 4 19 45 15 26 -2 60 -6
76 -10z m-2614 -54 c0 -16 -7 -20 -32 -20 -18 0 -44 3 -58 7 -24 7 -23 8 15
19 59 18 75 17 75 -6z m2565 -25 c33 -11 36 -13 15 -15 -84 -6 -90 -5 -90 13
0 20 19 21 75 2z m-2562 -55 c6 -22 -8 -25 -52 -13 l-23 6 28 13 c39 17 41 17
47 -6z m2557 -26 c24 -14 23 -14 -20 -12 -55 2 -61 5 -53 24 6 16 29 12 73
-12z m-2552 -65 c-9 -6 -20 -6 -48 1 -3 0 6 7 20 15 18 10 27 10 32 2 4 -6 2
-14 -4 -18z m2511 7 c23 -13 19 -24 -6 -20 -7 1 -20 2 -28 3 -8 0 -12 7 -9 16
7 18 12 18 43 1z m-2493 -74 c-3 -5 -18 -9 -33 -9 l-27 0 24 19 c23 18 49 11
36 -10z m2483 4 c27 -15 16 -27 -23 -24 -25 2 -34 17 -19 31 9 9 14 8 42 -7z
m-2465 -77 c-6 -11 -37 -4 -42 9 -4 14 31 21 40 8 4 -6 5 -13 2 -17z m2456
-14 c0 -2 -13 -3 -30 -3 -27 1 -39 16 -24 31 6 5 54 -20 54 -28z m-2430 -50
c0 -19 -15 -26 -35 -19 -15 6 -15 8 1 25 18 20 34 17 34 -6z m2393 -9 c23 -18
22 -24 -5 -21 -13 1 -28 3 -35 4 -15 1 -5 31 11 31 6 0 19 -7 29 -14z m-2462
-31 l29 -7 -21 -29 c-24 -34 -21 -40 15 -43 25 -1 34 -10 19 -19 -5 -3 -26 -8
-48 -11 -152 -24 -446 -140 -570 -226 -162 -113 -250 -318 -205 -480 24 -88
73 -162 192 -289 81 -87 238 -293 261 -341 21 -48 36 -115 37 -167 0 -49 3
-50 75 -27 85 26 164 20 318 -26 77 -22 190 -61 251 -85 261 -105 410 -96 547
32 145 134 190 288 184 633 -2 96 -6 182 -10 191 -3 10 -2 20 4 23 6 4 16 -8
24 -25 l13 -33 23 38 24 38 16 -26 c9 -14 21 -26 27 -26 8 0 11 -91 9 -327 -2
-314 -3 -330 -24 -383 -67 -164 -264 -342 -416 -374 -69 -15 -83 -16 -155 -17
-134 -2 -209 19 -445 121 -133 58 -242 97 -295 107 -52 10 -169 8 -217 -4
l-43 -11 0 32 c0 45 -27 133 -57 186 -41 72 -82 120 -240 283 -229 236 -296
371 -289 577 6 190 120 432 246 525 18 14 74 38 124 54 122 38 469 139 488
141 4 0 22 7 40 15 28 11 33 11 36 0 2 -8 16 -17 33 -20z m2564 19 c28 -8 118
-35 200 -59 240 -69 388 -115 414 -128 68 -34 163 -157 209 -270 30 -73 43
-108 44 -117 0 -3 7 -26 14 -52 25 -82 20 -198 -13 -303 -39 -124 -98 -210
-264 -380 -64 -66 -129 -136 -145 -155 -16 -19 -31 -37 -34 -40 -14 -12 -57
-78 -78 -119 -23 -46 -27 -62 -38 -141 -3 -25 -7 -46 -9 -48 -1 -1 -15 2 -31
9 -16 6 -65 12 -109 14 -103 4 -191 -21 -419 -119 -171 -73 -222 -93 -267
-101 -13 -3 -37 -8 -54 -11 -56 -12 -202 -6 -261 11 -125 36 -192 79 -302 194
-59 61 -124 169 -138 231 -4 14 -7 166 -8 338 -1 231 2 311 10 308 6 -2 17 6
24 20 16 29 25 30 43 4 13 -19 14 -19 26 7 l13 28 13 -24 c7 -14 10 -40 7 -60
-3 -20 -5 -99 -6 -176 0 -320 36 -447 165 -578 87 -87 155 -120 259 -123 93
-3 150 10 315 73 72 28 155 58 185 66 30 9 87 26 125 37 101 30 189 29 281 -4
l40 -14 2 37 c5 78 14 118 41 176 30 65 170 249 272 358 184 198 230 344 162
516 -58 148 -130 219 -308 309 -159 79 -320 136 -449 157 -48 8 -49 8 -22 19
l28 11 -22 28 c-12 15 -18 28 -13 28 4 1 13 2 18 4 6 1 21 3 34 3 23 2 23 3 7
27 -9 14 -15 25 -14 25 2 0 26 -7 53 -16z m-2470 -44 c7 -11 -35 -31 -48 -23
-5 3 0 11 10 19 22 16 30 17 38 4z m2345 -31 c0 -6 -7 -8 -16 -5 -9 3 -23 6
-31 6 -13 0 -13 3 -3 15 9 11 17 12 31 4 10 -5 19 -15 19 -20z m-2332 -72
c-46 -12 -54 -4 -23 27 l28 28 13 -23 c12 -22 10 -25 -18 -32z m2298 17 c17
-14 17 -15 1 -10 -10 3 -25 6 -33 6 -8 0 -14 5 -14 10 0 15 24 12 46 -6z
m1307 -119 c27 -27 64 -71 83 -97 30 -43 32 -48 16 -56 -53 -28 -170 -54 -294
-66 l-58 -6 -25 56 c-28 61 -80 145 -114 183 -11 13 -21 27 -21 31 0 4 24 10
53 13 53 7 128 31 182 59 29 16 30 15 79 -26 28 -22 72 -63 99 -91z m-4614 65
c29 -7 64 -12 77 -12 27 0 28 1 -32 -71 -17 -21 -51 -78 -75 -127 l-44 -89
-40 5 c-97 11 -174 30 -273 66 l-52 20 22 31 c32 46 165 173 216 207 l43 28
52 -22 c29 -13 76 -29 106 -36z m3290 -22 c11 -17 9 -18 -16 -14 -15 2 -34 5
-40 5 -16 1 -17 23 -2 38 14 14 39 1 58 -29z m-2219 11 c0 -11 -69 -43 -77
-36 -2 3 10 16 27 31 30 25 50 27 50 5z m2342 6 c155 -33 380 -122 503 -200
130 -83 216 -231 209 -363 -5 -104 -54 -192 -183 -328 -97 -103 -247 -302
-276 -367 -13 -29 -27 -68 -30 -87 -11 -68 -12 -69 -53 -59 -106 25 -291 -15
-562 -121 -152 -60 -214 -74 -299 -68 -181 13 -324 185 -349 418 -8 77 -9 350
-1 400 4 26 10 34 23 32 11 -2 20 7 27 27 14 39 23 39 39 1 22 -54 37 -57 50
-9 l12 43 35 -58 c39 -62 53 -63 55 -1 1 30 3 35 12 22 69 -102 70 -103 77
-77 3 14 5 47 3 74 -2 26 -1 47 0 45 2 -2 28 -39 56 -82 57 -85 68 -87 77 -18
6 41 6 41 21 19 29 -42 92 -104 138 -138 l46 -33 -3 52 c-2 28 -1 51 4 51 4 0
7 -4 7 -8 0 -23 129 -138 220 -197 58 -37 137 -89 177 -116 l72 -48 -13 32
c-7 18 -17 41 -21 52 -4 11 -9 25 -11 30 -62 222 -124 363 -188 428 -21 21
-10 22 38 2 41 -17 44 -11 16 25 -11 14 -20 29 -20 33 0 4 -25 42 -55 83 -30
40 -54 74 -52 74 2 0 27 -7 56 -16 29 -8 57 -14 62 -12 5 2 -13 35 -41 75
l-50 71 42 -9 c23 -6 45 -12 50 -15 16 -10 8 8 -24 52 -17 24 -35 44 -39 44
-4 0 -9 6 -12 13 -4 11 5 12 39 7 24 -4 44 -4 44 -2 0 11 -45 72 -52 72 -5 0
-8 4 -8 10 0 5 14 7 32 5 49 -6 52 4 14 41 l-35 34 29 0 c35 0 37 12 9 51 -25
35 -21 35 83 14z m-2432 -5 c0 -5 -4 -10 -8 -10 -7 0 -42 -52 -42 -62 0 -3 14
-2 31 0 l31 5 -26 -42 c-14 -22 -26 -43 -26 -47 0 -3 15 -5 33 -4 45 3 54 1
42 -8 -14 -9 -55 -68 -55 -77 0 -4 18 -5 41 -1 l41 6 -44 -55 c-24 -30 -42
-59 -42 -63 1 -4 17 -6 35 -4 19 2 29 -1 24 -5 -19 -15 -75 -91 -75 -102 0 -6
6 -9 13 -7 6 3 27 7 45 10 l33 6 -29 -43 c-45 -67 -82 -157 -64 -157 5 0 26 7
45 15 32 13 36 13 31 0 -4 -8 -9 -15 -13 -15 -21 0 -104 -179 -146 -315 -26
-82 -54 -162 -61 -177 -8 -16 -13 -28 -10 -28 8 0 291 183 331 214 38 29 89
81 131 134 19 23 19 23 16 -33 l-4 -56 49 35 c53 38 102 90 147 154 16 23 29
42 30 42 1 0 0 -33 -2 -72 l-3 -73 50 52 c51 51 51 51 51 23 0 -38 14 -45 34
-17 50 68 45 65 46 30 0 -18 4 -33 9 -33 12 0 71 68 71 81 0 6 5 7 10 4 6 -3
10 -22 10 -41 0 -19 3 -34 6 -34 9 0 31 25 53 61 15 24 21 29 22 17 1 -10 3
-22 4 -28 1 -5 3 -15 4 -22 0 -7 16 2 34 20 l32 31 4 -42 c15 -143 3 -485 -20
-543 -4 -13 -7 -24 -5 -24 3 0 -9 -28 -25 -61 -35 -72 -125 -166 -189 -199
-54 -28 -155 -37 -228 -21 -29 6 -110 33 -180 60 -105 41 -217 78 -357 118
-35 10 -185 12 -210 3 -29 -11 -40 1 -49 57 -10 68 -39 122 -130 243 -81 106
-109 140 -229 274 -123 136 -156 253 -110 391 52 158 172 255 448 365 157 62
345 100 345 70z m124 -56 c7 -19 -16 -41 -54 -50 -14 -4 -31 -11 -37 -17 -9
-6 -13 -6 -13 2 0 14 71 81 86 81 7 0 15 -7 18 -16z m2141 -15 c20 -12 34 -23
32 -25 -8 -8 -97 28 -91 37 8 13 19 11 59 -12z m-2098 -48 c10 -16 9 -22 -10
-34 -40 -26 -109 -59 -114 -54 -4 5 98 107 107 107 3 0 11 -9 17 -19z m2082
-21 c28 -22 51 -42 51 -45 0 -7 -55 12 -97 34 -29 14 -41 26 -37 36 9 24 29
18 83 -25z m-23 -80 c22 -19 45 -43 52 -52 12 -16 11 -16 -15 -9 -38 12 -102
42 -135 64 -27 18 -28 19 -10 42 16 23 18 23 43 7 15 -9 44 -33 65 -52z
m-2072 -24 c-64 -58 -101 -82 -112 -72 -2 3 30 39 73 81 63 63 79 74 91 64 13
-10 5 -22 -52 -73z m116 7 c0 -3 -39 -44 -87 -89 -78 -73 -144 -116 -159 -101
-3 3 43 52 102 111 91 90 109 104 125 95 11 -5 19 -13 19 -16z m1885 -31 c33
-16 78 -59 114 -111 l24 -33 -24 7 c-70 22 -228 118 -229 139 0 5 8 17 18 27
16 16 19 16 42 1 14 -9 39 -22 55 -30z m-1823 -29 l27 -26 -92 -87 c-146 -139
-246 -214 -263 -197 -17 16 102 172 192 252 37 33 72 65 78 72 16 18 27 16 58
-14z m1755 -49 c43 -31 90 -70 104 -87 40 -48 109 -150 106 -154 -12 -11 -107
62 -206 157 -98 93 -112 111 -101 125 7 8 14 15 16 15 1 0 38 -25 81 -56z
m-1607 -76 c0 -6 -27 -55 -60 -110 -33 -54 -60 -101 -60 -104 0 -14 -118 -179
-166 -233 -48 -52 -236 -191 -260 -191 -4 0 -15 -7 -25 -16 -35 -31 -35 -7 -2
100 67 218 95 261 310 473 l165 162 49 -36 c27 -19 49 -39 49 -45z m1700 -137
c107 -108 140 -150 184 -237 36 -73 103 -280 94 -290 -8 -8 -202 116 -264 168
-82 70 -185 221 -341 500 -2 4 20 23 49 42 l52 35 70 -66 c39 -37 109 -105
156 -152z m-1600 81 c0 -12 -88 -171 -126 -228 -43 -65 -136 -162 -141 -147
-8 23 39 140 98 243 35 61 72 126 83 145 l18 33 34 -20 c19 -11 34 -23 34 -26z
m1322 -89 c80 -137 113 -208 121 -261 5 -30 4 -32 -11 -20 -39 30 -98 97 -137
158 -42 64 -115 202 -115 217 0 10 53 41 62 36 3 -1 39 -60 80 -130z m-1265
69 c24 -15 -32 -170 -87 -242 l-19 -25 4 48 c6 65 22 122 51 179 25 49 30 53
51 40z m1124 -54 c18 -35 39 -75 46 -90 14 -27 27 -118 17 -118 -20 0 -140
242 -129 260 14 23 35 6 66 -52z m-1053 19 c8 -9 7 -21 -3 -42 -8 -17 -26 -56
-40 -87 -14 -32 -28 -58 -31 -58 -9 0 3 66 25 133 23 68 31 77 49 54z m961
-19 c6 -18 13 -53 17 -78 3 -25 7 -55 9 -67 6 -38 -9 -26 -32 27 -39 88 -49
130 -32 141 22 14 27 11 38 -23z m-893 -25 c-9 -36 -57 -136 -63 -130 -4 5 24
134 33 148 3 5 12 9 21 9 11 0 14 -7 9 -27z m815 15 c0 -7 2 -20 3 -28 10 -51
14 -110 7 -110 -12 0 -51 95 -51 124 0 19 5 26 20 26 11 0 20 -6 21 -12z
m-746 -18 c8 -14 -24 -112 -35 -105 -8 5 -4 78 5 103 5 15 21 16 30 2z m669
-46 c-2 -32 -6 -59 -8 -61 -3 -3 -12 19 -20 48 -13 42 -13 54 -4 61 29 18 35
8 32 -48z m-589 26 c3 -5 -2 -26 -10 -47 -14 -32 -18 -35 -26 -21 -8 14 -8 52
0 76 2 6 31 1 36 -8z m507 -15 c-1 -11 -5 -31 -9 -45 l-6 -25 -12 29 c-7 16
-10 38 -7 48 6 25 38 19 34 -7z m-437 -14 c-8 -33 -25 -51 -26 -28 -1 9 -2 23
-3 30 -3 18 1 24 19 24 13 0 15 -6 10 -26z m365 7 c0 -23 -19 -62 -21 -43 0 6
-2 19 -4 29 -4 22 2 36 16 36 5 0 9 -10 9 -22z m-290 8 c0 -1 -5 -18 -12 -37
-12 -33 -12 -33 -18 -9 -8 31 -2 50 16 50 8 0 14 -2 14 -4z m154 -14 c-1 -7
-2 -24 -2 -39 -2 -34 -19 -20 -28 24 -5 27 -3 31 12 29 11 -2 19 -8 18 -14z
m69 6 c5 -18 -3 -48 -14 -48 -5 0 -9 6 -10 13 0 6 -2 20 -4 30 -4 19 21 24 28
5z m-157 -20 c-3 -13 -6 -27 -6 -33 0 -5 -5 -3 -10 5 -15 23 -12 50 6 50 12 0
15 -6 10 -22z m67 -891 c20 -34 62 -92 96 -128 l60 -66 -34 -78 c-35 -80 -88
-172 -134 -234 l-25 -34 -32 37 c-38 44 -89 136 -130 236 l-31 75 62 67 c34
37 76 94 94 127 18 34 34 61 36 61 2 0 19 -28 38 -63z"/>
<path d="M2767 3943 c-4 -3 -7 -44 -7 -89 0 -77 1 -83 20 -81 15 1 20 8 20 28
0 21 5 26 23 25 12 0 30 -10 39 -21 10 -11 23 -26 29 -33 8 -10 14 -10 24 -2
12 10 12 16 -2 36 -13 21 -14 29 -3 49 17 33 5 74 -26 85 -29 11 -107 13 -117
3z m108 -53 c0 -15 -41 -30 -62 -22 -7 2 -13 13 -13 24 0 16 6 19 38 16 23 -3
37 -9 37 -18z"/>
<path d="M2589 3921 c-33 -16 -34 -19 -34 -72 0 -37 7 -65 19 -83 17 -26 21
-28 64 -21 57 9 63 12 55 31 -4 11 -17 15 -46 12 -52 -4 -62 18 -13 28 29 5
36 11 36 29 0 21 -3 22 -37 14 -42 -9 -48 -7 -40 15 3 8 21 16 39 18 25 2 33
8 33 22 0 25 -32 28 -76 7z"/>
<path d="M3009 3917 c-40 -31 -20 -84 39 -102 29 -9 29 -35 -1 -35 -13 0 -27
4 -33 10 -13 13 -38 -5 -31 -24 3 -8 21 -19 39 -24 48 -13 88 11 88 54 0 34
-15 52 -50 59 -30 6 -36 13 -23 26 7 7 17 8 29 1 23 -11 44 -5 44 13 0 31 -70
46 -101 22z"/>
<path d="M3158 3809 c-26 -80 -26 -80 10 -79 6 0 52 123 52 141 0 4 -8 9 -18
11 -16 4 -23 -8 -44 -73z"/>
<path d="M2459 3848 c-3 -61 -4 -66 -11 -73 -3 -4 -23 11 -43 34 -33 36 -65
46 -65 20 0 -10 115 -122 131 -127 5 -2 9 7 10 20 0 13 2 30 3 38 2 8 6 39 10
68 6 47 4 52 -14 52 -16 0 -20 -7 -21 -32z"/>
<path d="M3283 3844 c-4 -10 1 -22 11 -30 16 -11 16 -16 -9 -63 -14 -29 -23
-56 -20 -61 13 -22 33 -7 55 40 24 51 33 57 60 40 13 -8 29 3 30 22 0 6 -104
68 -115 68 -3 0 -8 -7 -12 -16z"/>
<path d="M2277 3799 c-16 -9 -15 -16 19 -77 43 -81 40 -78 58 -63 12 10 9 22
-21 79 -19 37 -36 68 -37 69 0 1 -9 -3 -19 -8z"/>
<path d="M2197 3753 c-4 -3 4 -25 18 -49 l25 -42 -23 3 c-12 2 -44 8 -71 13
-56 11 -80 6 -71 -15 10 -26 88 -133 97 -133 19 0 19 31 1 57 -36 52 -36 52
38 33 69 -18 99 -18 99 1 0 5 -18 39 -41 74 -38 60 -56 75 -72 58z"/>
<path d="M2680 3724 c-299 -52 -551 -239 -690 -512 -32 -63 -67 -158 -75 -202
-3 -14 -9 -46 -13 -73 -5 -26 -10 -91 -11 -145 -5 -375 228 -727 582 -875 170
-71 355 -90 542 -55 55 10 109 23 120 28 11 5 49 21 85 37 36 15 67 31 68 35
2 4 8 8 13 8 20 0 136 86 194 145 132 130 225 295 260 453 3 12 7 30 9 40 19
86 24 213 11 292 -4 25 -8 54 -10 65 -9 68 -49 181 -93 265 -89 171 -233 313
-406 400 -107 53 -141 67 -179 74 -15 3 -35 7 -45 10 -76 22 -262 27 -362 10z
m420 -79 c91 -32 172 -97 190 -151 12 -37 6 -52 -56 -139 -63 -88 -62 -88 -94
-65 -51 36 -238 98 -259 86 -22 -14 -32 16 -35 100 -3 122 10 157 74 186 22
11 130 1 180 -17z m-321 -10 c16 -8 33 -25 37 -37 9 -26 13 -217 4 -219 -3 -1
-21 -3 -40 -5 -65 -7 -155 -34 -216 -64 -34 -17 -64 -30 -66 -30 -8 0 -108
138 -120 166 -18 39 -1 90 42 126 36 32 133 72 190 81 48 7 140 -2 169 -18z
m677 -211 c55 -37 90 -80 125 -151 38 -76 50 -134 37 -180 -10 -38 -24 -46
-153 -87 l-75 -24 -25 55 c-31 69 -99 162 -141 194 -33 25 -33 38 -1 71 7 7
22 29 34 48 64 104 122 126 199 74z m-1111 10 c8 -4 43 -44 76 -91 l60 -84
-33 -33 c-64 -65 -148 -185 -148 -212 0 -30 -23 -31 -109 -4 -108 34 -137 52
-150 93 -22 67 24 171 109 251 82 75 142 100 195 80z m583 -119 c57 -9 145
-44 198 -79 227 -151 306 -446 183 -687 -45 -90 -135 -182 -221 -229 -127 -68
-312 -80 -438 -28 -114 47 -212 128 -269 223 -148 246 -72 569 170 725 57 37
148 70 214 77 28 3 51 6 52 7 4 3 71 -2 111 -9z m-665 -400 c-9 -56 -11 -212
-3 -263 l5 -33 -85 -30 c-102 -36 -139 -38 -173 -13 -43 32 -60 80 -63 178 -2
100 19 181 60 228 39 46 59 48 168 14 l99 -31 -8 -50z m1401 90 c13 -9 33 -38
45 -65 45 -105 9 -316 -62 -363 -34 -22 -59 -21 -138 4 -106 34 -109 37 -101
78 8 42 9 221 2 269 l-5 34 80 28 c91 33 145 37 179 15z m-157 -445 c96 -27
125 -53 128 -111 6 -123 -158 -309 -272 -309 -36 0 -51 14 -126 116 l-45 61
55 58 c61 64 127 160 137 200 5 21 9 23 29 15 12 -5 55 -19 94 -30z m-1204
-11 c27 -61 89 -150 135 -191 l41 -37 -26 -38 c-80 -118 -116 -153 -156 -153
-95 0 -226 151 -243 281 -13 98 -5 109 107 149 113 39 120 39 142 -11z m380
-324 c49 -14 78 -19 132 -24 6 -1 10 -44 10 -108 -1 -121 -9 -143 -64 -169
-95 -45 -319 43 -373 147 -23 46 -17 64 57 163 l55 73 63 -32 c34 -19 88 -41
120 -50z m548 3 c58 -75 64 -87 64 -130 0 -37 -5 -52 -28 -76 -96 -100 -362
-131 -407 -47 -12 23 -21 179 -12 217 3 12 11 17 26 14 47 -8 286 71 286 95 0
17 8 9 71 -73z"/>
<path d="M2978 3553 c-20 -22 -39 -89 -31 -109 8 -22 30 -16 37 10 5 19 11 24
29 20 12 -2 31 -6 42 -8 35 -7 95 -36 95 -46 0 -5 -4 -11 -10 -15 -13 -8 -1
-35 17 -35 35 0 55 131 21 138 -13 2 -18 -3 -18 -18 0 -17 -3 -19 -19 -10 -11
5 -44 16 -73 24 -45 11 -53 17 -53 36 0 30 -17 35 -37 13z"/>
<path d="M2577 3575 c-87 -22 -135 -96 -107 -165 16 -38 35 -54 56 -46 15 6
15 8 0 31 -16 24 -15 24 30 44 54 24 124 44 131 38 2 -3 5 -14 6 -26 1 -16 7
-21 22 -19 16 2 19 9 16 38 -9 92 -62 128 -154 105z m88 -45 c3 -5 -13 -14
-35 -20 -22 -6 -61 -20 -85 -30 -47 -20 -54 -17 -31 12 29 39 134 66 151 38z"/>
<path d="M3328 3327 c-14 -12 -31 -32 -37 -44 -9 -19 -8 -24 9 -33 14 -8 20
-8 20 0 0 19 48 60 70 60 32 0 46 -41 25 -74 l-17 -26 40 0 c77 0 70 -68 -8
-85 -21 -5 -30 -13 -30 -26 0 -50 120 9 132 66 6 27 -18 72 -42 80 -13 4 -20
15 -20 31 0 34 -45 74 -84 74 -18 0 -43 -10 -58 -23z"/>
<path d="M2197 3295 c-15 -25 -27 -50 -27 -55 0 -21 27 -15 50 13 l26 30 38
-36 38 -36 -19 -33 c-12 -21 -32 -37 -53 -44 -45 -15 -53 -44 -13 -44 36 0
101 44 108 73 11 44 12 62 4 78 -7 14 -110 99 -120 99 -2 0 -16 -20 -32 -45z"/>
<path d="M2775 3229 c-228 -32 -394 -234 -380 -464 9 -171 113 -317 271 -383
63 -26 103 -34 176 -34 195 0 372 140 424 334 12 49 13 165 0 221 -14 60 -61
141 -115 195 -103 105 -235 150 -376 131z m180 -49 c113 -39 182 -94 238 -191
53 -92 67 -227 33 -324 -38 -108 -122 -200 -223 -247 -116 -53 -261 -46 -371
18 -187 110 -258 340 -165 531 50 102 171 202 263 218 19 3 36 8 39 11 12 12
134 2 186 -16z"/>
<path d="M2734 3106 c-83 -27 -157 -92 -199 -175 -23 -45 -28 -74 -27 -155 1
-184 162 -327 353 -314 276 20 403 347 216 555 -56 62 -137 98 -227 100 -42 2
-93 -3 -116 -11z m218 -58 c53 -22 122 -93 146 -148 9 -19 17 -65 18 -102 2
-58 -1 -76 -27 -127 -74 -149 -248 -207 -386 -130 -50 28 -70 46 -102 94 -76
112 -60 258 38 356 45 45 72 60 136 74 63 14 116 9 177 -17z"/>
<path d="M2795 2933 c-88 -23 -134 -139 -85 -219 29 -45 97 -77 147 -68 131
24 171 187 63 264 -30 21 -88 32 -125 23z m95 -60 c16 -9 33 -27 39 -40 46
-101 -78 -189 -161 -114 -90 80 17 216 122 154z"/>
<path d="M2061 2901 c-44 -33 -60 -141 -30 -212 10 -26 13 -27 85 -25 41 2 77
6 81 9 14 15 -1 183 -19 204 -31 37 -84 48 -117 24z m87 -59 c5 -9 8 -44 8
-76 l-1 -60 -42 -3 c-39 -2 -43 0 -50 25 -16 63 -7 116 24 139 18 14 48 2 61
-25z"/>
<path d="M3483 2905 c-7 -19 2 -30 25 -30 14 0 17 -11 17 -65 1 -83 -3 -97
-26 -103 -10 -3 -19 -12 -19 -21 0 -9 1 -16 3 -16 1 0 26 -3 55 -6 51 -6 54
-5 87 31 59 61 49 163 -20 205 -40 25 -113 27 -122 5z m121 -57 c32 -46 8
-147 -35 -148 -3 0 -6 38 -5 85 1 90 11 105 40 63z"/>
<path d="M3348 2447 c-68 -102 -74 -163 -18 -192 48 -25 77 -19 119 24 20 21
50 59 65 85 27 46 27 48 9 61 -10 8 -21 15 -25 15 -4 0 -30 14 -56 30 -27 17
-51 30 -54 30 -3 0 -21 -24 -40 -53z m110 -31 c29 -10 28 -25 -8 -74 -43 -60
-76 -75 -104 -47 -23 24 -6 79 42 138 13 15 17 15 31 3 9 -7 26 -17 39 -20z"/>
<path d="M2203 2479 c-64 -41 -84 -101 -52 -165 23 -49 83 -93 119 -89 14 1
30 3 37 4 6 0 27 17 48 38 33 33 35 37 20 52 -15 15 -17 14 -30 -2 -12 -17
-15 -17 -40 10 -37 39 -78 110 -70 123 3 5 13 10 22 10 10 0 13 6 9 16 -3 9
-6 18 -6 20 0 10 -28 2 -57 -17z m12 -100 c9 -16 32 -48 52 -70 19 -21 31 -39
27 -40 -5 0 -17 -2 -27 -4 -44 -8 -110 97 -84 133 13 17 14 16 32 -19z"/>
<path d="M2544 2215 c-16 -7 -40 -24 -53 -38 -19 -21 -22 -29 -12 -41 16 -19
96 -56 121 -56 36 0 21 29 -26 50 -39 17 -45 22 -34 35 27 33 121 1 139 -48
24 -62 -72 -103 -123 -52 -16 16 -46 10 -46 -9 1 -20 51 -49 94 -53 72 -7 131
46 119 109 -7 35 -50 81 -88 95 -56 20 -61 21 -91 8z"/>
<path d="M3144 2216 c-8 -8 -8 -19 -3 -29 11 -19 -10 -32 -93 -58 -60 -18 -68
-16 -68 13 0 11 -7 18 -20 18 -16 0 -20 -7 -20 -30 0 -42 27 -103 52 -119 44
-27 148 -6 190 39 10 11 21 33 24 49 12 57 -36 146 -62 117z m16 -126 c-20
-37 -100 -61 -144 -44 -30 12 -16 29 34 41 28 7 63 18 78 26 33 17 48 7 32
-23z"/>
<path d="M3444 3722 c-11 -9 -33 -34 -48 -54 -27 -36 -27 -37 -8 -47 15 -8 21
-7 26 4 8 21 27 18 61 -9 26 -21 28 -26 15 -41 -12 -14 -12 -18 1 -26 21 -13
23 -12 56 34 46 65 49 92 14 127 -34 35 -84 40 -117 12z m77 -32 c19 -11 26
-44 10 -54 -4 -3 -22 5 -39 18 -24 17 -29 25 -20 34 15 15 24 15 49 2z"/>
<path d="M2017 3608 c-2 -7 13 -32 34 -55 42 -46 46 -60 26 -87 -14 -20 -47
-12 -82 21 -46 42 -52 44 -64 29 -10 -12 -5 -21 24 -48 74 -67 121 -76 154
-29 34 48 27 83 -32 148 -32 34 -52 42 -60 21z"/>
<path d="M3631 3569 c-22 -24 -20 -45 5 -89 10 -16 15 -32 11 -36 -11 -12 -37
5 -47 30 -13 35 -29 40 -36 11 -8 -32 17 -72 50 -81 65 -16 94 34 58 97 -20
34 -20 38 -4 44 11 4 24 -3 42 -25 14 -16 28 -30 33 -30 17 0 5 53 -18 75 -30
31 -68 32 -94 4z"/>
<path d="M3674 2247 c-14 -12 -29 -39 -33 -59 -8 -35 -6 -41 31 -83 47 -53 84
-62 75 -17 -4 19 2 36 19 60 21 27 28 30 45 22 15 -8 21 -7 25 4 8 20 2 28
-43 59 -54 37 -88 41 -119 14z m79 -34 c2 -5 -8 -25 -24 -46 -26 -36 -28 -37
-38 -18 -14 26 -14 44 1 59 13 13 54 16 61 5z"/>
<path d="M2006 2193 c-4 -9 2 -25 14 -38 l20 -21 -22 -21 c-26 -24 -67 -37
-85 -26 -6 5 -15 24 -20 43 -5 20 -17 36 -26 38 -28 6 -22 -60 9 -97 43 -51
92 -42 171 32 l32 30 -38 38 c-43 44 -46 45 -55 22z"/>
<path d="M3516 2075 c-40 -38 -46 -48 -36 -60 11 -14 15 -14 30 0 16 15 21 13
55 -29 36 -44 58 -56 69 -37 3 5 -12 31 -34 58 -36 46 -38 51 -22 66 14 15 15
19 1 32 -13 13 -20 9 -63 -30z"/>
<path d="M2100 2048 c-101 -50 -71 -182 40 -173 70 6 112 91 74 150 -25 39
-65 47 -114 23z m84 -60 c13 -38 -23 -79 -62 -72 -71 13 -44 110 28 102 17 -2
28 -12 34 -30z"/>
<path d="M3330 1941 c-30 -20 -55 -39 -55 -42 0 -2 19 -35 42 -72 31 -50 46
-65 58 -61 11 5 15 14 11 29 -8 31 43 57 87 44 22 -6 33 -5 38 3 10 16 -6 35
-35 42 -18 4 -22 11 -18 34 4 32 -14 52 -50 56 -14 2 -47 -12 -78 -33z m90
-21 c0 -5 -13 -24 -29 -42 -25 -28 -31 -30 -45 -19 -23 19 -20 34 12 53 30 19
62 23 62 8z"/>
<path d="M2295 1953 c-58 -15 -92 -68 -81 -128 8 -40 52 -78 93 -81 31 -1 70
32 78 67 6 22 1 28 -35 44 -30 14 -44 15 -52 7 -13 -13 6 -42 28 -42 17 0 18
-12 3 -27 -15 -15 -66 3 -74 27 -10 32 6 70 36 86 27 13 30 13 50 -7 28 -28
63 -15 41 17 -9 13 -54 44 -62 43 -3 -1 -14 -4 -25 -6z"/>
<path d="M3132 1863 c-44 -21 -61 -89 -39 -156 11 -32 40 -33 45 -1 2 14 15
23 42 31 35 9 40 8 45 -8 7 -21 13 -23 33 -10 10 6 9 19 -8 63 -31 83 -65 106
-118 81z m56 -45 c21 -21 13 -35 -27 -45 -33 -9 -38 -8 -36 6 5 47 36 66 63
39z"/>
<path d="M2507 1854 c-15 -16 -6 -33 23 -39 34 -7 36 -18 15 -69 -13 -30 -20
-36 -44 -36 -19 0 -36 8 -48 23 -17 22 -53 26 -53 5 0 -15 56 -68 74 -69 9 -1
22 -2 29 -3 32 -5 66 25 81 72 28 83 28 92 0 102 -43 17 -69 21 -77 14z"/>
<path d="M2680 1792 c-28 -28 -50 -85 -50 -129 0 -29 30 -31 37 -3 4 16 14 20
47 20 46 0 61 -8 61 -30 0 -8 9 -15 20 -15 17 0 20 8 23 49 4 63 -3 91 -30
116 -31 29 -74 26 -108 -8z m77 -20 c14 -9 22 -46 11 -49 -5 -2 -24 -3 -43 -3
-38 0 -44 13 -18 42 17 19 31 22 50 10z"/>
<path d="M2954 1790 c-34 -35 -44 -37 -44 -10 0 13 -7 20 -19 20 -18 0 -20 -7
-17 -73 3 -81 9 -99 32 -90 11 4 15 15 12 35 -7 44 10 44 53 2 33 -32 41 -36
49 -24 14 22 13 24 -25 59 l-35 31 33 30 c27 25 30 31 17 40 -21 14 -23 13
-56 -20z"/>
</g>
</svg>
