<?xml version="1.0" encoding="UTF-8" standalone="no"?>
<svg
   xmlns:dc="http://purl.org/dc/elements/1.1/"
   xmlns:cc="http://creativecommons.org/ns#"
   xmlns:rdf="http://www.w3.org/1999/02/22-rdf-syntax-ns#"
   xmlns:svg="http://www.w3.org/2000/svg"
   xmlns="http://www.w3.org/2000/svg"
   xmlns:sodipodi="http://sodipodi.sourceforge.net/DTD/sodipodi-0.dtd"
   xmlns:inkscape="http://www.inkscape.org/namespaces/inkscape"
   enable-background="new 0 0 48 48"
   height="48px"
   id="Layer_1"
   version="1.1"
   viewBox="0 0 48 48"
   width="48px"
   xml:space="preserve"
   sodipodi:docname="proceeding.svg"
   inkscape:version="0.92.2 2405546, 2018-03-11"><metadata
     id="metadata9"><rdf:RDF><cc:Work
         rdf:about=""><dc:format>image/svg+xml</dc:format><dc:type
           rdf:resource="http://purl.org/dc/dcmitype/StillImage" /><dc:title></dc:title></cc:Work></rdf:RDF></metadata><defs
     id="defs7"><style
       id="style869"
       type="text/css">
   <![CDATA[
    .fil0 {fill:#2AC2B5;fill-rule:nonzero}
   ]]>
  </style></defs><sodipodi:namedview
     pagecolor="#ffffff"
     bordercolor="#666666"
     borderopacity="1"
     objecttolerance="10"
     gridtolerance="10"
     guidetolerance="10"
     inkscape:pageopacity="0"
     inkscape:pageshadow="2"
     inkscape:window-width="1366"
     inkscape:window-height="697"
     id="namedview5"
     showgrid="false"
     inkscape:zoom="6.9532167"
     inkscape:cx="20.351497"
     inkscape:cy="28.932175"
     inkscape:window-x="0"
     inkscape:window-y="29"
     inkscape:window-maximized="1"
     inkscape:current-layer="Layer_1"
     inkscape:snap-nodes="false" /><g
     style="clip-rule:evenodd;fill-rule:evenodd;image-rendering:optimizeQuality;shape-rendering:geometricPrecision;text-rendering:geometricPrecision"
     id="g887"
     transform="matrix(0.00607865,0,0,0.00607865,8.4012718,1.0816668)"><g
       id="Layer_x0020_1">
  <metadata
   id="CorelCorpID_0Corel-Layer" />
  <path
   id="path874"
   d="M 300,4752 V 5962 H 4852 V 4884 5022 Z M 1910,788 c -122,49 -136,205 -41,278 79,61 288,36 406,36 130,0 815,13 883,-13 110,-41 145,-194 47,-277 -75,-64 -296,-37 -410,-37 -153,0 -795,-23 -885,13 z m -743,2490 1121,-1 c 131,0 234,-15 246,-147 13,-146 -90,-179 -219,-179 H 1167 c -140,0 -247,18 -244,166 2,142 111,161 244,161 z M 1035,1672 c -129,47 -155,201 -52,280 76,58 297,33 411,33 403,0 2563,19 2649,-9 124,-40 138,-214 42,-283 -80,-56 -290,-32 -409,-32 -393,0 -2565,-16 -2641,11 z m 4,643 c -66,22 -96,42 -112,111 -61,267 315,202 467,202 399,0 2572,18 2652,-8 119,-39 136,-212 37,-283 -80,-58 -289,-33 -407,-33 -400,0 -2551,-18 -2637,11 z M 4852,6235 H 283 v 74 0 l -1,34 v 1 c 0,56 -1,100 15,109 37,21 743,12 1403,3 558,-8 1086,-15 1211,7 l 104,19 8,105 c 5,59 3,158 0,266 -5,172 -10,370 7,401 14,24 112,-21 196,-60 82,-38 157,-73 232,-72 74,2 147,36 227,73 83,38 180,83 195,57 13,-25 9,-217 5,-387 -2,-114 -5,-220 1,-283 l 11,-110 110,-12 c 135,-16 323,-11 492,-7 67,1 132,3 185,3 168,0 168,-22 168,-152 v -1 c 0,-21 0,-44 0,-68 z M 283,5328 v -850 l 4569,270 v -3886 0 c 0,-61 1,-166 3,-255 3,-201 4,-303 -13,-323 -11,-13 -99,-12 -275,-9 -76,1 -161,2 -204,2 H 1680 c -46,0 -252,-1 -450,-2 -295,-2 -591,-3 -883,2 -64,1 -71,61 -70,138 0,20 2,48 3,76 2,43 3,88 3,118 v 0 z m 2467,1519 c 1,-44 2,-86 3,-123 -202,-7 -616,-2 -1050,4 -696,10 -1439,20 -1541,-38 C 7,6603 8,6488 10,6342 v -34 -5699 0 C 10,563 8,532 7,501 6,476 5,450 4,419 0,189 36,9 342,4 636,-1 934,1 1232,2 c 102,1 196,2 448,2 h 2683 c 109,0 158,-1 200,-2 261,-4 391,-6 485,103 86,99 83,236 79,506 -1,56 -2,120 -2,251 v 0 3903 h 1 v 128 1205 137 h -2 v 68 0 c 2,365 2,426 -440,425 -59,0 -123,-1 -190,-3 -113,-2 -234,-5 -339,-2 1,42 2,88 3,137 4,205 10,437 -41,526 -139,246 -357,144 -546,57 -54,-25 -103,-48 -118,-48 -11,0 -60,22 -113,47 -189,87 -411,190 -548,-55 -54,-95 -47,-334 -42,-540 z"
   class="fil0"
   inkscape:connector-curvature="0"
   style="fill:#2ac2b5;fill-rule:nonzero" />
 </g></g></svg>