<?xml version="1.0" encoding="UTF-8"?>
<!DOCTYPE svg PUBLIC "-//W3C//DTD SVG 1.1//EN" "http://www.w3.org/Graphics/SVG/1.1/DTD/svg11.dtd">
<!-- Creator: CorelDRAW X7 -->
<svg xmlns="http://www.w3.org/2000/svg" xml:space="preserve" width="51.329mm" height="75.4062mm" version="1.1" style="shape-rendering:geometricPrecision; text-rendering:geometricPrecision; image-rendering:optimizeQuality; fill-rule:evenodd; clip-rule:evenodd"
viewBox="0 0 5133 7541"
 xmlns:xlink="http://www.w3.org/1999/xlink">
 <defs>
  <style type="text/css">
   <![CDATA[
    .fil0 {fill:#2AC2B5;fill-rule:nonzero}
   ]]>
  </style>
 </defs>
 <g id="Layer_x0020_1">
  <metadata id="CorelCorpID_0Corel-Layer"/>
  <path class="fil0" d="M300 4752l0 1210 4552 0 0 -1078 0 138 -4552 -270zm1610 -3964c-122,49 -136,205 -41,278 79,61 288,36 406,36 130,0 815,13 883,-13 110,-41 145,-194 47,-277 -75,-64 -296,-37 -410,-37 -153,0 -795,-23 -885,13zm-743 2490l1121 -1c131,0 234,-15 246,-147 13,-146 -90,-179 -219,-179l-1148 0c-140,0 -247,18 -244,166 2,142 111,161 244,161zm-132 -1606c-129,47 -155,201 -52,280 76,58 297,33 411,33 403,0 2563,19 2649,-9 124,-40 138,-214 42,-283 -80,-56 -290,-32 -409,-32 -393,0 -2565,-16 -2641,11zm4 643c-66,22 -96,42 -112,111 -61,267 315,202 467,202 399,0 2572,18 2652,-8 119,-39 136,-212 37,-283 -80,-58 -289,-33 -407,-33 -400,0 -2551,-18 -2637,11zm3813 3920l-4569 0 0 74 0 0 -1 34 0 1c0,56 -1,100 15,109 37,21 743,12 1403,3 558,-8 1086,-15 1211,7l104 19 8 105c5,59 3,158 0,266 -5,172 -10,370 7,401 14,24 112,-21 196,-60 82,-38 157,-73 232,-72 74,2 147,36 227,73 83,38 180,83 195,57 13,-25 9,-217 5,-387 -2,-114 -5,-220 1,-283l11 -110 110 -12c135,-16 323,-11 492,-7 67,1 132,3 185,3 168,0 168,-22 168,-152l0 -1c0,-21 0,-44 0,-68zm-4569 -907l0 -850 4569 270 0 -3886 0 0c0,-61 1,-166 3,-255 3,-201 4,-303 -13,-323 -11,-13 -99,-12 -275,-9 -76,1 -161,2 -204,2l-2683 0c-46,0 -252,-1 -450,-2 -295,-2 -591,-3 -883,2 -64,1 -71,61 -70,138 0,20 2,48 3,76 2,43 3,88 3,118l0 0 0 4719zm2467 1519c1,-44 2,-86 3,-123 -202,-7 -616,-2 -1050,4 -696,10 -1439,20 -1541,-38 -155,-87 -154,-202 -152,-348l0 -34 0 -5699 0 0c0,-46 -2,-77 -3,-108 -1,-25 -2,-51 -3,-82 -4,-230 32,-410 338,-415 294,-5 592,-3 890,-2 102,1 196,2 448,2l2683 0c109,0 158,-1 200,-2 261,-4 391,-6 485,103 86,99 83,236 79,506 -1,56 -2,120 -2,251l0 0 0 3903 1 0 0 128 0 1205 0 137 -2 0 0 68 0 0c2,365 2,426 -440,425 -59,0 -123,-1 -190,-3 -113,-2 -234,-5 -339,-2 1,42 2,88 3,137 4,205 10,437 -41,526 -139,246 -357,144 -546,57 -54,-25 -103,-48 -118,-48 -11,0 -60,22 -113,47 -189,87 -411,190 -548,-55 -54,-95 -47,-334 -42,-540z"/>
 </g>
</svg>
